<svg width="16" height="16" viewBox="0 0 16 16" fill="none" xmlns="http://www.w3.org/2000/svg">
<path d="M6.75607 7.02266L7.82876 6.03873C8.42965 5.48755 8.63578 4.62677 8.34972 3.8632L7.89134 2.63967C7.53622 1.69177 6.50498 1.1837 5.537 1.47974C3.8208 2.00461 2.50181 3.59938 2.90788 5.49397C3.17493 6.73992 3.68549 8.30382 4.6539 9.96857C5.62397 11.6362 6.73182 12.869 7.68148 13.7335C9.11591 15.0394 11.1661 14.7129 12.4851 13.4831C13.2189 12.7989 13.2939 11.662 12.6562 10.8874L11.8156 9.86638C11.2974 9.23686 10.4489 8.98498 9.67111 9.22978L8.28266 9.66679C8.22926 9.61191 8.16741 9.54629 8.09994 9.47106C7.87181 9.21671 7.58645 8.86022 7.34646 8.44455C7.10647 8.02887 6.94042 7.6035 6.83421 7.27876C6.8028 7.18272 6.7769 7.09634 6.75607 7.02266Z" fill="#242424"/>
</svg>
