<svg width="16" height="16" viewBox="0 0 16 16" fill="none" xmlns="http://www.w3.org/2000/svg">
<path d="M3.71346 5.25791C3.52289 4.00162 4.40951 2.87046 5.765 2.45591C6.26419 2.30324 6.79601 2.56526 6.97915 3.0541L7.41371 4.21407C7.55674 4.59586 7.45368 5.02625 7.15323 5.30184L5.86072 6.4874C5.73129 6.60612 5.67381 6.78489 5.70903 6.95695L5.72051 7.00918C5.72766 7.04038 5.73817 7.08451 5.75235 7.1397C5.78067 7.24998 5.82381 7.40504 5.88419 7.58967C6.00432 7.95697 6.19587 8.45096 6.48087 8.94459C6.76587 9.43823 7.09791 9.85111 7.35593 10.1388C7.48563 10.2834 7.59836 10.3983 7.67969 10.478C7.7204 10.5178 7.75337 10.549 7.77681 10.5708L7.81694 10.6074C7.94835 10.724 8.13126 10.763 8.29879 10.7103L9.97178 10.1837C10.3607 10.0613 10.7849 10.1872 11.044 10.502L11.8355 11.4634C12.1649 11.8636 12.1262 12.451 11.7471 12.8044C10.71 13.7714 9.28401 13.9694 8.29143 13.1719C7.33454 12.403 6.2084 11.2604 5.26764 9.64317C4.32469 8.02219 3.89777 6.47292 3.71346 5.25791ZM6.75651 7.0227L7.8292 6.03877C8.43009 5.4876 8.63622 4.62682 8.35016 3.86325L7.91559 2.70327C7.54709 1.71966 6.47699 1.19244 5.47254 1.49963C3.78991 2.01423 2.43887 3.52308 2.72477 5.40788C2.92444 6.72416 3.38625 8.39773 4.40325 10.146C5.41613 11.8872 6.63014 13.1198 7.66506 13.9514C9.15251 15.1466 11.1392 14.7384 12.429 13.5358C13.1946 12.8221 13.2728 11.6359 12.6076 10.8278L11.8161 9.86642C11.2978 9.2369 10.4493 8.98503 9.67155 9.22983L8.2831 9.66684C8.2297 9.61196 8.16784 9.54634 8.10037 9.47111C7.87225 9.21676 7.58689 8.86027 7.3469 8.44459C7.1069 8.02892 6.94086 7.60355 6.83465 7.27881C6.80324 7.18277 6.77733 7.09639 6.75651 7.0227Z" fill="#242424"/>
</svg>
