<svg width="16" height="16" viewBox="0 0 16 16" fill="none" xmlns="http://www.w3.org/2000/svg">
<path d="M7.5 2.00001C7.77614 2.00001 8 2.22387 8 2.50001C7.99992 2.77609 7.77609 3.00001 7.5 3.00001H4.5C3.67157 3.00001 3 3.67159 3 4.50001V11.5C3.00008 12.3284 3.67162 13 4.5 13H11.5C12.3284 13 12.9999 12.3284 13 11.5V9.50001C13 9.22387 13.2239 9.00001 13.5 9.00001C13.7761 9.00001 14 9.22387 14 9.50001V11.5C13.9999 12.8807 12.8807 14 11.5 14H4.5C3.11934 14 2.00008 12.8807 2 11.5V4.50001C2 3.1193 3.11929 2.00001 4.5 2.00001H7.5ZM10.7803 1.05079C10.9518 0.966918 11.1559 0.988333 11.3066 1.10548L15.8066 4.60548C15.9284 4.70021 16 4.84575 16 5.00001C16 5.15426 15.9284 5.29985 15.8066 5.39455L11.3066 8.89455C11.1559 9.01164 10.9517 9.03306 10.7803 8.94923C10.6088 8.86535 10.5001 8.69092 10.5 8.50001V7.0254C8.26802 7.25507 6.87621 8.99837 6.10352 10.4238L5.94727 10.7236C5.84354 10.931 5.6104 11.0396 5.38477 10.9863C5.15934 10.9329 5.00007 10.7317 5 10.5C5 8.42358 5.51823 6.55895 6.53711 5.20021C7.47545 3.94909 8.82277 3.15339 10.5 3.0215V1.50001C10.5 1.30907 10.6088 1.13471 10.7803 1.05079ZM11.5 3.50001C11.4999 3.77609 11.2761 4.00001 11 4.00001C9.41093 4.00001 8.18302 4.67316 7.33789 5.79982C6.80109 6.51558 6.41018 7.42584 6.19434 8.47951C7.22177 7.19867 8.77537 6.00001 11 6.00001C11.2761 6.00001 11.5 6.22387 11.5 6.50001V7.47755L14.6855 5.00001L11.5 2.5215V3.50001Z" fill="#242424"/>
</svg>
