<svg viewBox="0 0 24 24" fill="none" xmlns="http://www.w3.org/2000/svg">

	<symbol id="arrow-down" viewBox="0 0 24 24">
		<path d="M19.7905 13.2673C20.0762 12.9674 20.0646 12.4926 19.7647 12.2069C19.4648 11.9212 18.99 11.9328 18.7043 12.2327L12.7498 18.484V3.75C12.7498 3.33579 12.4141 3 11.9998 3C11.5856 3 11.2498 3.33579 11.2498 3.75V18.4844L5.29502 12.2327C5.00933 11.9328 4.5346 11.9212 4.23467 12.2069C3.93475 12.4926 3.9232 12.9674 4.20889 13.2673L11.2756 20.6862C11.4366 20.8553 11.642 20.9552 11.8556 20.9861C11.9023 20.9952 11.9505 21 11.9998 21C12.0495 21 12.0981 20.9952 12.1451 20.9859C12.3582 20.9548 12.5631 20.8549 12.7238 20.6862L19.7905 13.2673Z" fill="currentColor"/>
  </symbol>

	<symbol id="arrow-left" viewBox="0 0 24 24">
		<path d="M10.7327 19.7905C11.0326 20.0762 11.5074 20.0646 11.7931 19.7647C12.0788 19.4648 12.0672 18.99 11.7673 18.7043L5.51587 12.7497H20.25C20.6642 12.7497 21 12.4139 21 11.9997C21 11.5855 20.6642 11.2497 20.25 11.2497H5.51577L11.7673 5.29502C12.0672 5.00933 12.0787 4.5346 11.7931 4.23467C11.5074 3.93475 11.0326 3.9232 10.7327 4.20889L3.31379 11.2756C3.14486 11.4365 3.04491 11.6417 3.01393 11.8551C3.00479 11.9019 3 11.9503 3 11.9997C3 12.0493 3.00481 12.0977 3.01398 12.1446C3.04502 12.3579 3.14496 12.563 3.31379 12.7238L10.7327 19.7905Z" fill="currentColor"/>
  </symbol>

	<symbol id="arrow-right" viewBox="0 0 24 24">
		<path d="M13.2673 4.20889C12.9674 3.9232 12.4926 3.93475 12.2069 4.23467C11.9212 4.5346 11.9328 5.00933 12.2327 5.29502L18.4841 11.2496H3.75C3.33579 11.2496 3 11.5854 3 11.9996C3 12.4138 3.33579 12.7496 3.75 12.7496H18.4842L12.2327 18.7043C11.9328 18.99 11.9212 19.4648 12.2069 19.7647C12.4926 20.0646 12.9674 20.0762 13.2673 19.7905L20.6862 12.7238C20.8551 12.5629 20.9551 12.3576 20.9861 12.1443C20.9952 12.0975 21 12.0491 21 11.9996C21 11.9501 20.9952 11.9016 20.986 11.8547C20.955 11.6415 20.855 11.4364 20.6862 11.2756L13.2673 4.20889Z" fill="currentColor"/>
  </symbol>

	<symbol id="arrow-up" viewBox="0 0 24 24">
		<path d="M4.20889 10.7327C3.9232 11.0326 3.93475 11.5074 4.23467 11.7931C4.5346 12.0788 5.00933 12.0672 5.29502 11.7673L11.2495 5.516V20.25C11.2495 20.6642 11.5853 21 11.9995 21C12.4137 21 12.7495 20.6642 12.7495 20.25V5.51565L18.7043 11.7673C18.99 12.0672 19.4648 12.0788 19.7647 11.7931C20.0646 11.5074 20.0762 11.0326 19.7905 10.7327L12.7238 3.31379C12.5627 3.14474 12.3573 3.04477 12.1438 3.01386C12.0971 3.00477 12.0489 3 11.9995 3C11.9498 3 11.9012 3.00483 11.8543 3.01406C11.6412 3.04518 11.4363 3.14509 11.2756 3.31379L4.20889 10.7327Z" fill="currentColor"/>
  </symbol>

	<symbol id="chevron-down" viewBox="0 0 24 24">
		<path d="M4.21967 8.46967C4.51256 8.17678 4.98744 8.17678 5.28033 8.46967L12 15.1893L18.7197 8.46967C19.0126 8.17678 19.4874 8.17678 19.7803 8.46967C20.0732 8.76256 20.0732 9.23744 19.7803 9.53033L12.5303 16.7803C12.2374 17.0732 11.7626 17.0732 11.4697 16.7803L4.21967 9.53033C3.92678 9.23744 3.92678 8.76256 4.21967 8.46967Z" fill="currentColor"/>
  </symbol>

	<symbol id="chevron-left" viewBox="0 0 24 24">
		<path d="M15.5303 4.21967C15.8232 4.51256 15.8232 4.98744 15.5303 5.28033L8.81066 12L15.5303 18.7197C15.8232 19.0126 15.8232 19.4874 15.5303 19.7803C15.2374 20.0732 14.7626 20.0732 14.4697 19.7803L7.21967 12.5303C6.92678 12.2374 6.92678 11.7626 7.21967 11.4697L14.4697 4.21967C14.7626 3.92678 15.2374 3.92678 15.5303 4.21967Z" fill="currentColor"/>
  </symbol>

	<symbol id="chevron-right" viewBox="0 0 24 24">
		<path d="M8.46967 4.21967C8.17678 4.51256 8.17678 4.98744 8.46967 5.28033L15.1893 12L8.46967 18.7197C8.17678 19.0126 8.17678 19.4874 8.46967 19.7803C8.76256 20.0732 9.23744 20.0732 9.53033 19.7803L16.7803 12.5303C17.0732 12.2374 17.0732 11.7626 16.7803 11.4697L9.53033 4.21967C9.23744 3.92678 8.76256 3.92678 8.46967 4.21967Z" fill="currentColor"/>
  </symbol>

	<symbol id="chevron-up" viewBox="0 0 24 24">
		<path d="M4.21967 15.5303C4.51256 15.8232 4.98744 15.8232 5.28033 15.5303L12 8.81066L18.7197 15.5303C19.0126 15.8232 19.4874 15.8232 19.7803 15.5303C20.0732 15.2374 20.0732 14.7626 19.7803 14.4697L12.5303 7.21967C12.2374 6.92678 11.7626 6.92678 11.4697 7.21967L4.21967 14.4697C3.92678 14.7626 3.92678 15.2374 4.21967 15.5303Z" fill="currentColor"/>
  </symbol>

	<symbol id="add" viewBox="0 0 24 24">
		<path d="M11.7498 3C12.1295 3 12.4434 3.28201 12.4931 3.64808L12.5 3.74985L12.5012 11H19.7543C20.1685 11 20.5043 11.3358 20.5043 11.75C20.5043 12.1297 20.2221 12.4435 19.8561 12.4932L19.7543 12.5H12.5012L12.5032 19.7491C12.5033 20.1633 12.1676 20.4993 11.7534 20.4993C11.3737 20.4993 11.0598 20.2173 11.0101 19.8512L11.0032 19.7494L11.0012 12.5H3.7522C3.33798 12.5 3.0022 12.1642 3.0022 11.75C3.0022 11.3703 3.28435 11.0565 3.65043 11.0068L3.7522 11H11.0012L11 3.75015C10.9999 3.33594 11.3356 3 11.7498 3Z" fill="currentColor"/>
  </symbol>

	<symbol id="dismiss" viewBox="0 0 24 24">
		<path d="M4.39705 4.55379L4.46967 4.46967C4.73594 4.2034 5.1526 4.1792 5.44621 4.39705L5.53033 4.46967L12 10.939L18.4697 4.46967C18.7626 4.17678 19.2374 4.17678 19.5303 4.46967C19.8232 4.76256 19.8232 5.23744 19.5303 5.53033L13.061 12L19.5303 18.4697C19.7966 18.7359 19.8208 19.1526 19.6029 19.4462L19.5303 19.5303C19.2641 19.7966 18.8474 19.8208 18.5538 19.6029L18.4697 19.5303L12 13.061L5.53033 19.5303C5.23744 19.8232 4.76256 19.8232 4.46967 19.5303C4.17678 19.2374 4.17678 18.7626 4.46967 18.4697L10.939 12L4.46967 5.53033C4.2034 5.26406 4.1792 4.8474 4.39705 4.55379Z" fill="currentColor"/>
  </symbol>

	<symbol id="search" viewBox="0 0 24 24">
		<path d="M4.5 10C4.5 6.96243 6.96243 4.5 10 4.5C13.0376 4.5 15.5 6.96243 15.5 10C15.5 13.0376 13.0376 15.5 10 15.5C6.96243 15.5 4.5 13.0376 4.5 10ZM10 3C6.13401 3 3 6.13401 3 10C3 13.866 6.13401 17 10 17C11.6628 17 13.1902 16.4202 14.3911 15.4518L19.7197 20.7803C20.0126 21.0732 20.4874 21.0732 20.7803 20.7803C21.0732 20.4874 21.0732 20.0126 20.7803 19.7197L15.4518 14.3911C16.4202 13.1902 17 11.6628 17 10C17 6.13401 13.866 3 10 3Z" fill="currentColor"/>
  </symbol>

	<symbol id="globe" viewBox="0 0 24 24">
		<path d="M12 1.99899C17.524 1.99899 22.002 6.47699 22.002 12.001C22.002 17.524 17.524 22.002 12 22.002C6.47605 22.002 1.99805 17.524 1.99805 12.001C1.99805 6.47699 6.47605 1.99899 12 1.99899ZM14.939 16.5H9.06005C9.71205 18.914 10.846 20.502 11.999 20.502C13.152 20.502 14.286 18.914 14.938 16.5H14.939ZM7.50905 16.5H4.78505C5.75054 18.0449 7.18521 19.2402 8.87905 19.911C8.35705 19.091 7.92605 18.065 7.60905 16.896L7.50705 16.501L7.50905 16.5ZM19.214 16.5H16.492C16.168 17.835 15.7 19 15.119 19.911C16.7059 19.2833 18.0679 18.194 19.029 16.784L19.214 16.5ZM7.09405 9.99999H3.73505L3.73005 10.017C3.5749 10.6669 3.49669 11.3328 3.49705 12.001C3.49705 13.057 3.69005 14.068 4.04205 15.001H7.21505C6.97354 13.3453 6.93224 11.6666 7.09205 10.001L7.09405 9.99999ZM15.397 9.99999H8.60305C8.42711 11.6653 8.47251 13.3466 8.73805 15H15.262C15.5275 13.3466 15.5729 11.6653 15.397 9.99999ZM20.265 9.99999H16.907C16.969 10.647 17.002 11.317 17.002 12C17.0037 13.004 16.9308 14.0068 16.784 15H19.957C20.3181 14.0411 20.5024 13.0246 20.501 12C20.501 11.311 20.419 10.64 20.265 9.99999ZM8.88005 4.08999L8.85705 4.09799C6.81046 4.91521 5.15951 6.4927 4.25005 8.49999H7.29805C7.61205 6.74799 8.15705 5.22199 8.88005 4.08999ZM12 3.49899L11.884 3.50399C10.62 3.61999 9.39605 5.62199 8.83005 8.49999H15.172C14.606 5.62999 13.389 3.63099 12.127 3.50499L12 3.49899ZM15.12 4.08899L15.227 4.26399C15.896 5.37599 16.404 6.83599 16.702 8.50099H19.75C18.8819 6.58508 17.3367 5.05732 15.411 4.21099L15.12 4.08899Z" fill="currentColor"/>
  </symbol>

	<symbol id="clock" viewBox="0 0 24 24">
		<path d="M3.5 12C3.5 7.30558 7.30558 3.5 12 3.5C16.6944 3.5 20.5 7.30558 20.5 12C20.5 16.6944 16.6944 20.5 12 20.5C7.30558 20.5 3.5 16.6944 3.5 12ZM12 2C6.47715 2 2 6.47715 2 12C2 17.5228 6.47715 22 12 22C17.5228 22 22 17.5228 22 12C22 6.47715 17.5228 2 12 2ZM11.9931 6.64827C11.9435 6.28233 11.6295 6 11.25 6C10.836 6 10.5 6.336 10.5 6.75V12.75L10.5069 12.8517C10.5565 13.2177 10.8705 13.5 11.25 13.5H15.25L15.3517 13.4931C15.7177 13.4435 16 13.1295 16 12.75C16 12.336 15.664 12 15.25 12H12V6.75L11.9931 6.64827Z" fill="currentColor"/>
  </symbol>

	<symbol id="call" viewBox="0 0 24 24">
		<path d="M7.05605 2.41799L8.22305 2.06699C8.86234 1.87422 9.54993 1.92062 10.1575 2.19755C10.7651 2.47448 11.2512 2.96302 11.525 3.57199L12.427 5.57799C12.6625 6.1018 12.7281 6.68617 12.6146 7.24913C12.501 7.81209 12.2141 8.32538 11.794 8.71699L10.3 10.11C10.2564 10.1507 10.2287 10.2057 10.222 10.265C10.178 10.662 10.447 11.435 11.067 12.51C11.518 13.291 11.927 13.84 12.274 14.147C12.516 14.362 12.649 14.408 12.706 14.392L14.716 13.777C15.265 13.6091 15.8527 13.6172 16.3967 13.8001C16.9408 13.983 17.414 14.3316 17.75 14.797L19.031 16.573C19.4206 17.1131 19.6009 17.7762 19.5386 18.4392C19.4763 19.1021 19.1755 19.72 18.692 20.178L17.806 21.018C17.3358 21.4633 16.7583 21.7792 16.1297 21.935C15.5011 22.0908 14.8428 22.0812 14.219 21.907C11.465 21.138 8.99605 18.814 6.78405 14.983C4.56905 11.147 3.79205 7.84299 4.50805 5.06999C4.66922 4.44633 4.98834 3.8747 5.43462 3.41019C5.88091 2.94569 6.43933 2.60398 7.05605 2.41799ZM7.48905 3.85499C7.11912 3.96645 6.78413 4.17128 6.51633 4.44976C6.24853 4.72824 6.05695 5.07099 5.96005 5.44499C5.35805 7.77699 6.04705 10.706 8.08305 14.233C10.116 17.755 12.305 19.815 14.623 20.463C14.9972 20.5672 15.3919 20.5728 15.7689 20.4792C16.1458 20.3856 16.4921 20.1961 16.774 19.929L17.661 19.089C17.8809 18.8808 18.0176 18.5999 18.046 18.2984C18.0743 17.997 17.9922 17.6955 17.8151 17.45L16.535 15.675C16.3823 15.4632 16.1671 15.3046 15.9196 15.2213C15.6721 15.1381 15.4047 15.1345 15.155 15.211L13.14 15.828C11.97 16.176 10.908 15.235 9.76805 13.26C9.00005 11.93 8.64205 10.9 8.73105 10.099C8.77805 9.68299 8.97105 9.29899 9.27705 9.01299L10.771 7.61999C10.9621 7.44201 11.0926 7.20868 11.1442 6.95274C11.1959 6.69681 11.1661 6.43113 11.059 6.19299L10.157 4.18699C10.0326 3.9104 9.81177 3.68851 9.53579 3.56266C9.25982 3.43682 8.9475 3.41561 8.65705 3.50299L7.48905 3.85499Z" fill="currentColor"/>
  </symbol>

	<symbol id="map" viewBox="0 0 24 24">
		<path d="M9.20302 4L9.25002 3.998L9.29602 3.999C9.31845 4.0003 9.34081 4.00264 9.36302 4.006L9.37902 4.01C9.46502 4.024 9.54902 4.054 9.63102 4.102L9.68202 4.136L14.752 7.701L19.82 4.14C19.9252 4.06613 20.0475 4.0205 20.1753 4.0075C20.3032 3.9945 20.4322 4.01456 20.5501 4.06576C20.6679 4.11695 20.7706 4.19757 20.8484 4.29988C20.9261 4.40218 20.9763 4.52274 20.994 4.65L21.001 4.754V15.386C21.001 15.4888 20.9799 15.5905 20.9389 15.6847C20.898 15.779 20.8381 15.8638 20.763 15.934L20.683 16L15.183 19.866C15.0628 19.9515 14.9199 19.9993 14.7725 20.0034C14.6251 20.0075 14.4798 19.9677 14.355 19.889L9.25002 16.297L4.18002 19.862C4.07489 19.9359 3.95254 19.9815 3.82471 19.9945C3.69688 20.0075 3.56785 19.9874 3.45 19.9362C3.33214 19.885 3.22942 19.8044 3.15168 19.7021C3.07394 19.5998 3.02378 19.4793 3.00602 19.352L2.99902 19.248V8.616C2.99903 8.51323 3.02016 8.41155 3.0611 8.31728C3.10204 8.22301 3.16192 8.13816 3.23702 8.068L3.31702 8.002L8.81702 4.136C8.87835 4.09266 8.94574 4.05863 9.01702 4.035L9.13902 4.007L9.20302 4ZM19.501 6.197L15.501 9.009V17.808L19.501 14.996V6.197ZM8.50002 6.193L4.50002 9.005V17.805L8.50002 14.992V6.193ZM10.002 6.193V14.993L14.002 17.804V9.005L10.002 6.193Z" fill="currentColor"/>
  </symbol>

	<symbol id="location" viewBox="0 0 24 24">
		<path d="M5.84328 4.56831C9.24369 1.1679 14.7568 1.1679 18.1573 4.56831C21.5577 7.96872 21.5577 13.4819 18.1573 16.8823L16.9703 18.0562C16.0954 18.9149 14.9603 20.0188 13.5644 21.3684C12.6922 22.2117 11.3084 22.2116 10.4362 21.3681L6.94515 17.9723C6.50638 17.5414 6.13912 17.1781 5.84328 16.8823C2.44287 13.4819 2.44287 7.96872 5.84328 4.56831ZM17.0966 5.62897C14.282 2.81435 9.71856 2.81435 6.90394 5.62897C4.08931 8.4436 4.08931 13.007 6.90394 15.8216L8.39101 17.2891C9.20992 18.0905 10.2394 19.0909 11.4791 20.2899C11.7698 20.5711 12.231 20.5711 12.5218 20.29L15.9167 16.9885C16.3856 16.5282 16.779 16.1393 17.0966 15.8216C19.9112 13.007 19.9112 8.4436 17.0966 5.62897ZM12.0003 7.99897C13.658 7.99897 15.0018 9.34281 15.0018 11.0005C15.0018 12.6582 13.658 14.0021 12.0003 14.0021C10.3426 14.0021 8.99871 12.6582 8.99871 11.0005C8.99871 9.34281 10.3426 7.99897 12.0003 7.99897ZM12.0003 9.49897C11.171 9.49897 10.4987 10.1712 10.4987 11.0005C10.4987 11.8298 11.171 12.5021 12.0003 12.5021C12.8295 12.5021 13.5018 11.8298 13.5018 11.0005C13.5018 10.1712 12.8295 9.49897 12.0003 9.49897Z" fill="currentColor"/>
  </symbol>

	<symbol id="telegram" viewBox="0 0 24 24">
		<path d="M19.2 4.4L2.89997 10.7C1.79997 11.1 1.79997 11.8 2.69997 12L6.79997 13.3L8.39997 18.1C8.59997 18.6 8.49997 18.8 8.99997 18.8C9.39997 18.8 9.59997 18.6 9.79997 18.4C9.89997 18.3 10.8 17.4 11.8 16.4L16 19.5C16.8 19.9 17.3 19.7 17.5 18.8L20.3 5.7C20.6 4.6 19.9 4 19.2 4.4ZM17.1 7.4L9.29997 14.5L8.99997 17.8L7.39997 13L16.6 7.2C17 6.9 17.4 7.1 17.1 7.4Z" fill="currentColor"/>
  </symbol>

	<symbol id="instagram" viewBox="0 0 24 24">
		<path d="M11.999 7.377C10.7726 7.377 9.59651 7.86417 8.72934 8.73134C7.86217 9.59851 7.375 10.7746 7.375 12.001C7.375 13.2274 7.86217 14.4035 8.72934 15.2707C9.59651 16.1378 10.7726 16.625 11.999 16.625C13.2254 16.625 14.4015 16.1378 15.2687 15.2707C16.1358 14.4035 16.623 13.2274 16.623 12.001C16.623 10.7746 16.1358 9.59851 15.2687 8.73134C14.4015 7.86417 13.2254 7.377 11.999 7.377ZM11.999 15.004C11.6045 15.004 11.2139 14.9263 10.8494 14.7753C10.485 14.6244 10.1538 14.4031 9.87485 14.1241C9.5959 13.8452 9.37463 13.514 9.22367 13.1496C9.0727 12.7851 8.995 12.3945 8.995 12C8.995 11.6055 9.0727 11.2149 9.22367 10.8504C9.37463 10.486 9.5959 10.1548 9.87485 9.87585C10.1538 9.5969 10.485 9.37563 10.8494 9.22466C11.2139 9.0737 11.6045 8.996 11.999 8.996C12.7957 8.996 13.5598 9.31249 14.1231 9.87585C14.6865 10.4392 15.003 11.2033 15.003 12C15.003 12.7967 14.6865 13.5608 14.1231 14.1241C13.5598 14.6875 12.7957 15.004 11.999 15.004Z" fill="currentColor"/>
		<path d="M16.806 8.285C17.4014 8.285 17.884 7.80236 17.884 7.207C17.884 6.61163 17.4014 6.129 16.806 6.129C16.2107 6.129 15.728 6.61163 15.728 7.207C15.728 7.80236 16.2107 8.285 16.806 8.285Z" fill="currentColor"/>
		<path d="M20.533 6.111C20.3017 5.51302 19.948 4.96998 19.4946 4.51673C19.0412 4.06347 18.498 3.71 17.9 3.479C17.2003 3.21624 16.4611 3.07422 15.714 3.059C14.751 3.017 14.446 3.005 12.004 3.005C9.56195 3.005 9.24895 3.005 8.29395 3.059C7.54744 3.07445 6.80895 3.21646 6.10995 3.479C5.51189 3.71 4.96872 4.06347 4.51529 4.51673C4.06186 4.96998 3.70818 5.51302 3.47695 6.111C3.21454 6.81069 3.07286 7.54986 3.05795 8.297C3.01495 9.259 3.00195 9.564 3.00195 12.007C3.00195 14.45 3.00195 14.76 3.05795 15.717C3.07295 16.465 3.21395 17.203 3.47695 17.904C3.70829 18.5021 4.06212 19.0452 4.51573 19.4984C4.96934 19.9517 5.5127 20.3051 6.11095 20.536C6.80848 20.8089 7.54736 20.9611 8.29595 20.986C9.25895 21.028 9.56395 21.041 12.006 21.041C14.448 21.041 14.761 21.041 15.716 20.986C16.4631 20.9711 17.2023 20.8294 17.902 20.567C18.5001 20.3359 19.0433 19.9823 19.4968 19.5288C19.9502 19.0754 20.3038 18.5322 20.535 17.934C20.798 17.234 20.939 16.496 20.954 15.748C20.997 14.786 21.01 14.481 21.01 12.038C21.01 9.595 21.01 9.285 20.954 8.328C20.9419 7.57031 20.7995 6.82035 20.533 6.111ZM19.315 15.643C19.3094 16.2194 19.2041 16.7905 19.004 17.331C18.8531 17.7195 18.6229 18.0722 18.3282 18.3668C18.0334 18.6614 17.6805 18.8913 17.292 19.042C16.7571 19.2402 16.1923 19.3453 15.622 19.353C14.672 19.397 14.404 19.408 11.968 19.408C9.52995 19.408 9.28095 19.408 8.31295 19.353C7.74296 19.3452 7.17849 19.24 6.64395 19.042C6.25411 18.8922 5.89984 18.6626 5.60384 18.368C5.30783 18.0733 5.0766 17.7201 4.92495 17.331C4.72877 16.7959 4.62364 16.2318 4.61395 15.662C4.57095 14.712 4.56095 14.444 4.56095 12.008C4.56095 9.572 4.56095 9.322 4.61395 8.353C4.61966 7.77695 4.72488 7.20622 4.92495 6.666C5.22995 5.877 5.85495 5.256 6.64395 4.954C7.17849 4.75595 7.74296 4.65077 8.31295 4.643C9.26395 4.6 9.53095 4.588 11.968 4.588C14.405 4.588 14.655 4.588 15.622 4.643C16.1923 4.65065 16.7571 4.75584 17.292 4.954C17.6806 5.10475 18.0336 5.33485 18.3283 5.62962C18.6231 5.92439 18.8532 6.27735 19.004 6.666C19.2001 7.20105 19.3053 7.7652 19.315 8.335C19.358 9.286 19.369 9.553 19.369 11.99C19.369 14.427 19.369 14.688 19.326 15.644L19.315 15.643Z" fill="currentColor"/>
  </symbol>

	<symbol id="facebook" viewBox="0 0 24 24">
		<path d="M13.397 20.997V12.801H16.162L16.573 9.592H13.397V7.548C13.397 6.622 13.655 5.988 14.984 5.988H16.668V3.127C15.8487 3.0385 15.0251 2.9961 14.201 3C11.757 3 10.079 4.492 10.079 7.231V9.586H7.33203V12.795H10.085V20.997H13.397Z" fill="currentColor"/>
  </symbol>
</svg>

